#N canvas 541 34 675 549 10;
#X obj 83 151 +;
#X msg 83 80 1;
#X text 80 175 Object;
#X text 76 61 Message;
#X floatatom 83 223 5 0 0 0 - - -;
#X floatatom 153 113 5 0 0 0 - - -;
#X msg 84 310 symbol Hello;
#X text 74 28 1 Basic Object (addition);
#X symbolatom 85 362 10 0 0 0 - - -;
#X text 79 284 2 Symbol;
#X obj 192 363 print;
#X msg 181 429 symbol Hello;
#X obj 181 481 print;
#X symbolatom 81 480 10 0 0 0 - - -;
#X obj 82 522 print;
#X msg 80 428 symbol Hello;
#X text 396 26 3 I/O switch;
#X obj 404 58 bng 15 250 50 0 empty empty empty 17 7 0 10 -262144 -1
-1;
#X obj 390 106 hradio 15 1 0 8 empty empty empty 0 -8 0 10 -262144
-1 -1 0;
#X obj 391 140 hsl 128 15 0 127 0 0 empty empty empty -2 -8 0 10 -262144
-1 -1 0 1;
#X text 429 57 bang;
#X text 521 107 hradio;
#X text 535 140 hslider;
#X obj 410 173 tgl 15 0 empty empty empty 17 7 0 10 -262144 -1 -1 0
1;
#X text 444 172 toggle;
#X text 397 239 4 Generated Wave;
#X obj 406 349 dac~ 1 2;
#X obj 405 289 osc~ 550;
#X text 474 349 audio output;
#X text 478 290 oscillator;
#X text 451 305 : ouputs a cosine wave;
#X obj 405 446 phasor~ 440;
#X obj 405 485 -~ 0.5;
#X obj 404 526 *~ 2;
#X obj 405 571 dac~ 1 2;
#X text 393 408 4-2. sawtooth wave;
#X text 397 267 4-1. Cosine wave;
#X text 151 98;
#X text 397 609 4-3. square wave;
#X obj 412 687 expr~ $v1 > 0.5;
#X obj 413 731 -~ 0.5;
#X obj 416 821 dac~ 1 2;
#X obj 411 640 phasor~ 440;
#X obj 414 775 *~ 3;
#X text 74 589 4-4. triangle wave;
#X obj 75 621 phasor~ 440;
#X obj 76 661 abs~;
#X obj 77 699 -~ 0.5;
#X obj 78 740 *~ 2;
#X obj 80 780 dac~ 1 2;
#X text 78 843 4-5. noise;
#X obj 78 874 noise~;
#X connect 0 0 4 0;
#X connect 1 0 0 0;
#X connect 5 0 0 1;
#X connect 6 0 8 0;
#X connect 6 0 10 0;
#X connect 11 0 12 0;
#X connect 13 0 14 0;
#X connect 15 0 13 0;
#X connect 31 0 32 0;
#X connect 32 0 33 0;
#X connect 39 0 40 0;
#X connect 40 0 43 0;
#X connect 42 0 39 0;
#X connect 43 0 41 0;
#X connect 43 0 41 1;
#X connect 45 0 46 0;
#X connect 46 0 47 0;
#X connect 47 0 48 0;
